<svg width="240" height="267" viewBox="0 0 240 267" fill="none" xmlns="http://www.w3.org/2000/svg">
<path d="M6.85333 61.8133C2.62667 64.2 0 68.7333 0 73.64V192.973C0 197.907 2.62667 202.413 6.85333 204.8C28.1467 216.813 92.9333 253.32 113.587 264.96C115.613 266.093 117.84 266.667 120.08 266.667C122.267 266.667 124.453 266.12 126.44 265.027C147.093 253.627 211.64 218.053 233.027 206.253C237.333 203.893 240 199.333 240 194.373V73.64C240 68.7333 237.373 64.2 233.133 61.8133C211.867 49.8267 147.213 13.3867 126.48 1.70667C124.467 0.573334 122.227 0 120 0C117.76 0 115.533 0.573334 113.52 1.70667C92.7867 13.3867 28.12 49.8267 6.85333 61.8133ZM220 90.0133V190.347L130 239.973V138.933L220 90.0133ZM20 189.013V89.5733L110 139.573V239.72L20 189.013ZM29.8133 72.0933L120 21.2533L210.68 72.3733L120 121.92L29.8133 72.0933Z" fill="url(#paint0_linear_1359_162424)"/>
<defs>
<linearGradient id="paint0_linear_1359_162424" x1="194.236" y1="24.3638" x2="5.54422" y2="211.831" gradientUnits="userSpaceOnUse">
<stop stop-color="#FFF47F" style="stop-color:#FFF47F;stop-color:color(display-p3 1.0000 0.9581 0.4966);stop-opacity:1;"/>
<stop offset="1" stop-color="#7FE1FF" style="stop-color:#7FE1FF;stop-color:color(display-p3 0.4980 0.8829 1.0000);stop-opacity:1;"/>
</linearGradient>
</defs>
</svg>
